<mxfile host="app.diagrams.net" modified="2021-04-14T06:43:47.409Z" agent="5.0 (Macintosh; Intel Mac OS X 11_2_0) AppleWebKit/537.36 (KHTML, like Gecko) Chrome/89.0.4389.114 Safari/537.36" etag="rT9QTApqidD3QGcoa6dF" version="14.6.0" type="github">
  <diagram id="MOI5lbc8q37WZQgTDZ-p" name="Page-1">
    <mxGraphModel dx="946" dy="504" grid="1" gridSize="10" guides="1" tooltips="1" connect="1" arrows="1" fold="1" page="1" pageScale="1" pageWidth="827" pageHeight="1169" math="0" shadow="0">
      <root>
        <mxCell id="0" />
        <mxCell id="1" parent="0" />
        <mxCell id="nCLuGUlF0RkdqGtZnwc1-1" value="STUDENT" style="rounded=0;whiteSpace=wrap;html=1;fontSize=15;" vertex="1" parent="1">
          <mxGeometry x="130" y="210" width="100" height="60" as="geometry" />
        </mxCell>
        <mxCell id="nCLuGUlF0RkdqGtZnwc1-2" value="SUBJECT" style="rounded=0;whiteSpace=wrap;html=1;fontSize=15;" vertex="1" parent="1">
          <mxGeometry x="599" y="210" width="100" height="60" as="geometry" />
        </mxCell>
        <mxCell id="nCLuGUlF0RkdqGtZnwc1-3" value="&lt;u&gt;Student ID&lt;/u&gt;" style="ellipse;whiteSpace=wrap;html=1;" vertex="1" parent="1">
          <mxGeometry x="10" y="160" width="80" height="40" as="geometry" />
        </mxCell>
        <mxCell id="nCLuGUlF0RkdqGtZnwc1-4" value="Name" style="ellipse;whiteSpace=wrap;html=1;" vertex="1" parent="1">
          <mxGeometry x="10" y="220" width="80" height="40" as="geometry" />
        </mxCell>
        <mxCell id="nCLuGUlF0RkdqGtZnwc1-5" value="Tel Number" style="ellipse;whiteSpace=wrap;html=1;" vertex="1" parent="1">
          <mxGeometry x="10" y="280" width="80" height="40" as="geometry" />
        </mxCell>
        <mxCell id="nCLuGUlF0RkdqGtZnwc1-6" value="Subject Code" style="ellipse;whiteSpace=wrap;html=1;fontStyle=4" vertex="1" parent="1">
          <mxGeometry x="739" y="160" width="80" height="40" as="geometry" />
        </mxCell>
        <mxCell id="nCLuGUlF0RkdqGtZnwc1-7" value="Subject Name" style="ellipse;whiteSpace=wrap;html=1;" vertex="1" parent="1">
          <mxGeometry x="739" y="220" width="80" height="40" as="geometry" />
        </mxCell>
        <mxCell id="nCLuGUlF0RkdqGtZnwc1-8" value="Course" style="ellipse;whiteSpace=wrap;html=1;" vertex="1" parent="1">
          <mxGeometry x="739" y="280" width="80" height="40" as="geometry" />
        </mxCell>
        <mxCell id="nCLuGUlF0RkdqGtZnwc1-9" value="Resister" style="rhombus;whiteSpace=wrap;html=1;" vertex="1" parent="1">
          <mxGeometry x="373.5" y="215" width="80" height="50" as="geometry" />
        </mxCell>
        <mxCell id="nCLuGUlF0RkdqGtZnwc1-10" value="SCORE" style="ellipse;whiteSpace=wrap;html=1;fontSize=15;" vertex="1" parent="1">
          <mxGeometry x="366" y="320" width="96" height="70" as="geometry" />
        </mxCell>
        <mxCell id="nCLuGUlF0RkdqGtZnwc1-11" value="" style="endArrow=none;html=1;exitX=1;exitY=0.5;exitDx=0;exitDy=0;entryX=0;entryY=0.5;entryDx=0;entryDy=0;" edge="1" parent="1" source="nCLuGUlF0RkdqGtZnwc1-1" target="nCLuGUlF0RkdqGtZnwc1-9">
          <mxGeometry width="50" height="50" relative="1" as="geometry">
            <mxPoint x="370" y="290" as="sourcePoint" />
            <mxPoint x="380" y="240" as="targetPoint" />
          </mxGeometry>
        </mxCell>
        <mxCell id="nCLuGUlF0RkdqGtZnwc1-13" value="&lt;font style=&quot;font-size: 15px&quot;&gt;N&lt;/font&gt;" style="edgeLabel;html=1;align=center;verticalAlign=middle;resizable=0;points=[];" vertex="1" connectable="0" parent="nCLuGUlF0RkdqGtZnwc1-11">
          <mxGeometry x="-0.4843" y="1" relative="1" as="geometry">
            <mxPoint x="-27" y="1" as="offset" />
          </mxGeometry>
        </mxCell>
        <mxCell id="nCLuGUlF0RkdqGtZnwc1-12" value="" style="endArrow=none;html=1;exitX=1;exitY=0.5;exitDx=0;exitDy=0;entryX=0;entryY=0.5;entryDx=0;entryDy=0;" edge="1" parent="1" source="nCLuGUlF0RkdqGtZnwc1-9">
          <mxGeometry width="50" height="50" relative="1" as="geometry">
            <mxPoint x="455.5" y="239.5" as="sourcePoint" />
            <mxPoint x="599" y="239.5" as="targetPoint" />
          </mxGeometry>
        </mxCell>
        <mxCell id="nCLuGUlF0RkdqGtZnwc1-14" value="&lt;font style=&quot;font-size: 15px&quot;&gt;M&lt;/font&gt;" style="edgeLabel;html=1;align=center;verticalAlign=middle;resizable=0;points=[];" vertex="1" connectable="0" parent="nCLuGUlF0RkdqGtZnwc1-12">
          <mxGeometry x="0.7938" y="1" relative="1" as="geometry">
            <mxPoint x="1" as="offset" />
          </mxGeometry>
        </mxCell>
        <mxCell id="nCLuGUlF0RkdqGtZnwc1-15" value="" style="endArrow=none;html=1;fontSize=15;exitX=0.5;exitY=0;exitDx=0;exitDy=0;" edge="1" parent="1" source="nCLuGUlF0RkdqGtZnwc1-10" target="nCLuGUlF0RkdqGtZnwc1-9">
          <mxGeometry width="50" height="50" relative="1" as="geometry">
            <mxPoint x="370" y="280" as="sourcePoint" />
            <mxPoint x="414" y="260" as="targetPoint" />
          </mxGeometry>
        </mxCell>
        <mxCell id="nCLuGUlF0RkdqGtZnwc1-16" value="" style="endArrow=none;html=1;fontSize=15;entryX=0;entryY=0.5;entryDx=0;entryDy=0;" edge="1" parent="1" target="nCLuGUlF0RkdqGtZnwc1-6">
          <mxGeometry width="50" height="50" relative="1" as="geometry">
            <mxPoint x="699" y="240" as="sourcePoint" />
            <mxPoint x="749" y="190" as="targetPoint" />
          </mxGeometry>
        </mxCell>
        <mxCell id="nCLuGUlF0RkdqGtZnwc1-17" value="" style="endArrow=none;html=1;fontSize=15;entryX=1;entryY=0.5;entryDx=0;entryDy=0;exitX=0;exitY=0.5;exitDx=0;exitDy=0;" edge="1" parent="1" source="nCLuGUlF0RkdqGtZnwc1-1" target="nCLuGUlF0RkdqGtZnwc1-3">
          <mxGeometry width="50" height="50" relative="1" as="geometry">
            <mxPoint x="140" y="370" as="sourcePoint" />
            <mxPoint x="190" y="320" as="targetPoint" />
          </mxGeometry>
        </mxCell>
        <mxCell id="nCLuGUlF0RkdqGtZnwc1-19" value="" style="endArrow=none;html=1;fontSize=15;exitX=1;exitY=0.5;exitDx=0;exitDy=0;" edge="1" parent="1" source="nCLuGUlF0RkdqGtZnwc1-5">
          <mxGeometry width="50" height="50" relative="1" as="geometry">
            <mxPoint x="80" y="290" as="sourcePoint" />
            <mxPoint x="130" y="240" as="targetPoint" />
          </mxGeometry>
        </mxCell>
        <mxCell id="nCLuGUlF0RkdqGtZnwc1-20" value="" style="endArrow=none;html=1;fontSize=15;entryX=0;entryY=0.5;entryDx=0;entryDy=0;" edge="1" parent="1" source="nCLuGUlF0RkdqGtZnwc1-4" target="nCLuGUlF0RkdqGtZnwc1-1">
          <mxGeometry width="50" height="50" relative="1" as="geometry">
            <mxPoint x="80" y="270" as="sourcePoint" />
            <mxPoint x="130" y="220" as="targetPoint" />
          </mxGeometry>
        </mxCell>
        <mxCell id="nCLuGUlF0RkdqGtZnwc1-22" value="" style="endArrow=none;html=1;fontSize=15;entryX=0;entryY=0.5;entryDx=0;entryDy=0;exitX=1;exitY=0.5;exitDx=0;exitDy=0;" edge="1" parent="1" source="nCLuGUlF0RkdqGtZnwc1-2" target="nCLuGUlF0RkdqGtZnwc1-8">
          <mxGeometry width="50" height="50" relative="1" as="geometry">
            <mxPoint x="700" y="310" as="sourcePoint" />
            <mxPoint x="750" y="260" as="targetPoint" />
          </mxGeometry>
        </mxCell>
        <mxCell id="nCLuGUlF0RkdqGtZnwc1-23" value="" style="endArrow=none;html=1;fontSize=15;exitX=0;exitY=0.5;exitDx=0;exitDy=0;entryX=1;entryY=0.5;entryDx=0;entryDy=0;" edge="1" parent="1" source="nCLuGUlF0RkdqGtZnwc1-7" target="nCLuGUlF0RkdqGtZnwc1-2">
          <mxGeometry width="50" height="50" relative="1" as="geometry">
            <mxPoint x="370" y="280" as="sourcePoint" />
            <mxPoint x="710" y="240" as="targetPoint" />
          </mxGeometry>
        </mxCell>
      </root>
    </mxGraphModel>
  </diagram>
</mxfile>
